<?xml version="1.0" encoding="UTF-8" standalone="no"?>
<svg
   width="134.87979mm"
   height="67.903275mm"
   viewBox="0 0 134.87979 67.903275"
   version="1.1"
   id="svg6"
   inkscape:version="1.1-dev (84d126bbe4, 2020-08-09)"
   sodipodi:docname="faviocon.svg"
   xmlns:inkscape="http://www.inkscape.org/namespaces/inkscape"
   xmlns:sodipodi="http://sodipodi.sourceforge.net/DTD/sodipodi-0.dtd"
   xmlns="http://www.w3.org/2000/svg"
   xmlns:svg="http://www.w3.org/2000/svg">
  <defs
     id="defs2">
    <rect
       x="-384.96506"
       y="-221.82555"
       width="217.22305"
       height="51.156265"
       id="rect120" />
    <rect
       x="-384.96506"
       y="-221.82555"
       width="217.22305"
       height="51.156265"
       id="rect128" />
    <rect
       x="-384.96506"
       y="-221.82555"
       width="217.22305"
       height="51.156265"
       id="rect144" />
    <rect
       x="-384.96506"
       y="-221.82555"
       width="217.22305"
       height="51.156265"
       id="rect1263" />
    <rect
       x="-384.96506"
       y="-221.82555"
       width="217.22305"
       height="51.156265"
       id="rect1683" />
    <rect
       x="-384.96506"
       y="-221.82555"
       width="217.22305"
       height="51.156265"
       id="rect1685" />
    <rect
       x="-384.96506"
       y="-221.82555"
       width="217.22305"
       height="51.156265"
       id="rect1687" />
    <rect
       x="-384.96506"
       y="-221.82555"
       width="217.22305"
       height="51.156265"
       id="rect1689" />
    <rect
       x="-384.96506"
       y="-221.82555"
       width="217.22305"
       height="51.156265"
       id="rect1687-5" />
    <rect
       x="-384.96506"
       y="-221.82555"
       width="217.22305"
       height="51.156265"
       id="rect1689-8" />
    <filter
       inkscape:collect="always"
       style="color-interpolation-filters:sRGB"
       id="filter1601-3"
       x="-0.023297718"
       width="1.0465955"
       y="-0.046495378"
       height="1.0929908">
      <feGaussianBlur
         inkscape:collect="always"
         stdDeviation="5.4578776"
         id="feGaussianBlur1603-1" />
    </filter>
    <rect
       x="-384.96506"
       y="-221.82555"
       width="217.22305"
       height="51.156265"
       id="rect1683-8" />
    <rect
       x="-384.96506"
       y="-221.82555"
       width="217.22305"
       height="51.156265"
       id="rect1685-4" />
  </defs>
  <sodipodi:namedview
     id="base"
     pagecolor="#212121"
     bordercolor="#666666"
     borderopacity="1.0"
     inkscape:pageopacity="0"
     inkscape:pageshadow="2"
     inkscape:zoom="0.98994949"
     inkscape:cx="281.32748"
     inkscape:cy="2.5253814"
     inkscape:document-units="mm"
     inkscape:current-layer="layer2"
     showgrid="false"
     showborder="true"
     inkscape:window-width="939"
     inkscape:window-height="1030"
     inkscape:window-x="967"
     inkscape:window-y="36"
     inkscape:window-maximized="0"
     inkscape:snap-grids="false"
     inkscape:snap-page="true"
     fit-margin-top="0"
     fit-margin-left="0"
     fit-margin-right="0"
     fit-margin-bottom="0" />
  <g
     inkscape:label="Layer 1"
     inkscape:groupmode="layer"
     id="layer1"
     style="display:inline"
     transform="translate(-49.506751,-107.66678)" />
  <g
     inkscape:groupmode="layer"
     id="layer2"
     inkscape:label="Layer 2"
     style="display:inline"
     transform="translate(-49.506751,-107.66678)">
    <g
       id="g1671"
       transform="matrix(0.22052049,0,0,0.22052049,105.87705,129.94926)">
      <g
         id="g1655"
         transform="matrix(1,0,-0.16895158,1,14.925445,5.2916669)"
         style="display:inline;opacity:0.278218;fill:#000000;filter:url(#filter1601-3)"
         inkscape:label="g1053">
        <path
           id="path1643"
           style="fill:#000000;stroke:none;stroke-width:0"
           inkscape:transform-center-x="-32.006325"
           d="m 280.35352,-352.39453 c -2.93532,5.3e-4 -5.60492,0.19087 -8.00196,0.57617 h -419.62109 c -58.95726,0 -106.42188,47.46462 -106.42188,106.42188 0,58.95724 47.46462,106.41992 106.42188,106.41992 h 285.3125 76.81836 183.55273 c 58.95727,0 106.42188,47.464611 106.42188,106.421872 0,58.957262 -47.46461,106.419922 -106.42188,106.419922 H 203.81055 138.04297 -27.269531 c -58.957261,0 -106.421879,47.464616 -106.421879,106.421876 0,58.95726 47.464618,106.41992 106.421879,106.41992 h 231.265621 82.51758 c 58.95727,0 106.41992,47.46461 106.41992,106.42188 0,58.95726 -47.46265,106.42187 -106.41992,106.42187 H 215.58008 -9.2441406 c -58.9572584,0 -106.4199194,47.46266 -106.4199194,106.41992 0,58.95727 47.462661,106.42188 106.4199194,106.42188 H 254.26758 c 35.3329,-3.75423 42.61719,-8.82422 42.61719,-8.82422 175.29413,-27.94146 877.30273,-440.15137 877.30273,-527.23047 0,-90.147899 -752.37592,-528.75811 -893.83398,-528.73242 z"
           transform="scale(0.26458333)"
           sodipodi:nodetypes="scsssccsssccssscssscsssccss" />
        <rect
           style="fill:#000000;stroke:none;stroke-width:0"
           id="rect1645"
           width="58.466499"
           height="56.314472"
           x="-100.0953"
           y="19.543648"
           ry="28.157236" />
        <rect
           style="fill:#000000;fill-opacity:1;stroke:none;stroke-width:0"
           id="rect1647"
           width="115.38212"
           height="56.314472"
           x="-194.66367"
           y="-93.237717"
           ry="28.157236" />
        <rect
           style="fill:#000000;fill-opacity:1;stroke:none;stroke-width:0"
           id="rect1649"
           width="181.35358"
           height="56.314472"
           x="-224.03363"
           y="132.17259"
           ry="28.157236" />
        <rect
           style="fill:#000000;fill-opacity:1;stroke:none;stroke-width:0"
           id="rect1651"
           width="58.466499"
           height="56.314472"
           x="-100.0953"
           y="19.543648"
           ry="28.157236" />
        <rect
           style="fill:#000000;fill-opacity:1;stroke:none;stroke-width:0"
           id="rect1653"
           width="93.759918"
           height="56.314472"
           x="-209.47212"
           y="19.543652"
           ry="28.157236" />
      </g>
      <g
         id="g1669"
         transform="matrix(1,0,-0.16895158,1,8.0462752,0)"
         style="display:inline;fill:#00e34e;fill-opacity:1"
         sodipodi:insensitive="true">
        <path
           id="path1657"
           style="fill:#00e34e;fill-opacity:1;stroke:none;stroke-width:0"
           inkscape:transform-center-x="-32.006325"
           d="m 280.35352,-352.39453 c -2.93532,5.3e-4 -5.60492,0.19087 -8.00196,0.57617 h -419.62109 c -58.95726,0 -106.42188,47.46462 -106.42188,106.42188 0,58.95724 47.46462,106.41992 106.42188,106.41992 h 285.3125 76.81836 183.55273 c 58.95727,0 106.42188,47.464611 106.42188,106.421872 0,58.957262 -47.46461,106.419922 -106.42188,106.419922 H 203.81055 138.04297 -27.269531 c -58.957261,0 -106.421879,47.464616 -106.421879,106.421876 0,58.95726 47.464618,106.41992 106.421879,106.41992 h 231.265621 82.51758 c 58.95727,0 106.41992,47.46461 106.41992,106.42188 0,58.95726 -47.46265,106.42187 -106.41992,106.42187 H 215.58008 -9.2441406 c -58.9572584,0 -106.4199194,47.46266 -106.4199194,106.41992 0,58.95727 47.462661,106.42188 106.4199194,106.42188 H 254.26758 c 35.3329,-3.75423 42.61719,-8.82422 42.61719,-8.82422 175.29413,-27.94146 877.30273,-440.15137 877.30273,-527.23047 0,-90.147899 -752.37592,-528.75811 -893.83398,-528.73242 z"
           transform="scale(0.26458333)"
           sodipodi:nodetypes="scsssccsssccssscssscsssccss" />
        <rect
           style="fill:#00e34e;fill-opacity:1;stroke:none;stroke-width:0"
           id="rect1659"
           width="58.466499"
           height="56.314472"
           x="-100.0953"
           y="19.543648"
           ry="28.157236" />
        <rect
           style="fill:#00e34e;fill-opacity:1;stroke:none;stroke-width:0"
           id="rect1661"
           width="115.38212"
           height="56.314472"
           x="-194.66367"
           y="-93.237717"
           ry="28.157236" />
        <rect
           style="fill:#00e34e;fill-opacity:1;stroke:none;stroke-width:0"
           id="rect1663"
           width="181.35358"
           height="56.314472"
           x="-224.03363"
           y="132.17259"
           ry="28.157236" />
        <rect
           style="fill:#00e34e;fill-opacity:1;stroke:none;stroke-width:0"
           id="rect1665"
           width="58.466499"
           height="56.314472"
           x="-100.0953"
           y="19.543648"
           ry="28.157236" />
        <rect
           style="fill:#00e34e;fill-opacity:1;stroke:none;stroke-width:0"
           id="rect1667"
           width="93.759918"
           height="56.314472"
           x="-209.47212"
           y="19.543652"
           ry="28.157236" />
      </g>
    </g>
  </g>
</svg>
