<svg
   width="137.82425mm"
   height="57.771027mm"
   viewBox="0 0 137.82425 57.771027"
   version="1.1"
   id="svg6"
   inkscape:version="1.1-dev (84d126bbe4, 2020-08-09)"
   sodipodi:docname="logo.svg"
   xmlns:inkscape="http://www.inkscape.org/namespaces/inkscape"
   xmlns:sodipodi="http://sodipodi.sourceforge.net/DTD/sodipodi-0.dtd"
   xmlns="http://www.w3.org/2000/svg"
   xmlns:svg="http://www.w3.org/2000/svg">
  <defs
     id="defs2">
    <rect
       x="-384.96506"
       y="-221.82555"
       width="217.22305"
       height="51.156265"
       id="rect120" />
    <rect
       x="-384.96506"
       y="-221.82555"
       width="217.22305"
       height="51.156265"
       id="rect128" />
    <rect
       x="-384.96506"
       y="-221.82555"
       width="217.22305"
       height="51.156265"
       id="rect144" />
    <filter
       inkscape:collect="always"
       style="color-interpolation-filters:sRGB"
       id="filter1037"
       x="-0.0085412525"
       width="1.0170825"
       y="-0.018164353"
       height="1.0363287">
      <feGaussianBlur
         inkscape:collect="always"
         stdDeviation="0.057671641"
         id="feGaussianBlur1039" />
    </filter>
    <rect
       x="-384.96506"
       y="-221.82555"
       width="217.22305"
       height="51.156265"
       id="rect1263" />
    <filter
       inkscape:collect="always"
       style="color-interpolation-filters:sRGB"
       id="filter1381"
       x="-0.03317022"
       width="1.0663404"
       y="-0.03049672"
       height="1.0609934">
      <feGaussianBlur
         inkscape:collect="always"
         stdDeviation="0.094137148"
         id="feGaussianBlur1383" />
    </filter>
    <filter
       inkscape:collect="always"
       style="color-interpolation-filters:sRGB"
       id="filter1601"
       x="-0.023297718"
       width="1.0465955"
       y="-0.046495378"
       height="1.0929908">
      <feGaussianBlur
         inkscape:collect="always"
         stdDeviation="5.4578776"
         id="feGaussianBlur1603" />
    </filter>
    <rect
       x="-384.96506"
       y="-221.82555"
       width="217.22305"
       height="51.156265"
       id="rect1683" />
    <rect
       x="-384.96506"
       y="-221.82555"
       width="217.22305"
       height="51.156265"
       id="rect1685" />
    <rect
       x="-384.96506"
       y="-221.82555"
       width="217.22305"
       height="51.156265"
       id="rect1687" />
    <rect
       x="-384.96506"
       y="-221.82555"
       width="217.22305"
       height="51.156265"
       id="rect1689" />
    <rect
       x="-384.96506"
       y="-221.82555"
       width="217.22305"
       height="51.156265"
       id="rect1687-5" />
    <rect
       x="-384.96506"
       y="-221.82555"
       width="217.22305"
       height="51.156265"
       id="rect1689-8" />
    <rect
       x="-384.96506"
       y="-221.82555"
       width="217.22305"
       height="51.156265"
       id="rect1683-8" />
    <rect
       x="-384.96506"
       y="-221.82555"
       width="217.22305"
       height="51.156265"
       id="rect1685-4" />
  </defs>
  <sodipodi:namedview
     id="base"
     pagecolor="#212121"
     bordercolor="#666666"
     borderopacity="1.0"
     inkscape:pageopacity="0"
     inkscape:pageshadow="2"
     inkscape:zoom="1.28"
     inkscape:cx="200.39063"
     inkscape:cy="7.421875"
     inkscape:document-units="mm"
     inkscape:current-layer="layer1"
     showgrid="false"
     showborder="true"
     inkscape:window-width="939"
     inkscape:window-height="1030"
     inkscape:window-x="967"
     inkscape:window-y="36"
     inkscape:window-maximized="0"
     inkscape:snap-grids="false"
     inkscape:snap-page="true"
     fit-margin-top="0"
     fit-margin-left="0"
     fit-margin-right="0"
     fit-margin-bottom="0" />
  <g
     inkscape:label="Layer 1"
     inkscape:groupmode="layer"
     id="layer1"
     style="display:inline"
     transform="translate(-34.974837,-111.97695)">
    <g
       id="g986"
       style="display:inline"
       transform="matrix(0.18761534,0,0,0.18761534,93.514923,130.93453)">
      <g
         id="g1615"
         style="display:inline"
         inkscape:export-xdpi="96.599998"
         inkscape:export-ydpi="96.599998">
        <text
           xml:space="preserve"
           id="text1261"
           style="font-size:10.5833px;line-height:1.25;font-family:Roboto;-inkscape-font-specification:Roboto;white-space:pre;shape-inside:url(#rect1263);opacity:0.423862;fill:#000000;filter:url(#filter1381)"
           transform="matrix(28.692385,0,-5.3201766,28.692385,10126.388,6259.1024)"><tspan
             x="-384.96484"
             y="-212.56578"><tspan
               style="font-style:normal;font-variant:normal;font-weight:bold;font-stretch:normal;font-family:'Bebas Neue';-inkscape-font-specification:'Bebas Neue Bold';fill:#000000">iT</tspan></tspan></text>
        <text
           xml:space="preserve"
           id="text126"
           style="font-size:10.5833px;line-height:1.25;font-family:Roboto;-inkscape-font-specification:Roboto;white-space:pre;shape-inside:url(#rect128);fill:#ff6600"
           transform="matrix(28.692385,0,-5.3201766,28.692385,10122.685,6254.8688)"><tspan
             x="-384.96484"
             y="-212.56578"><tspan
               style="font-style:normal;font-variant:normal;font-weight:bold;font-stretch:normal;font-family:'Bebas Neue';-inkscape-font-specification:'Bebas Neue Bold';fill:#ff6600">iT</tspan></tspan></text>
      </g>
      <g
         id="g1631"
         inkscape:export-xdpi="96.599998"
         inkscape:export-ydpi="96.599998">
        <g
           id="g1053"
           transform="matrix(1,0,-0.16895158,1,14.925445,5.2916669)"
           style="display:inline;opacity:0.278218;fill:#000000;filter:url(#filter1601)"
           inkscape:label="g1053">
          <path
             id="path1041"
             style="fill:#000000;stroke:none;stroke-width:0"
             inkscape:transform-center-x="-32.006325"
             d="m 280.35352,-352.39453 c -2.93532,5.3e-4 -5.60492,0.19087 -8.00196,0.57617 h -419.62109 c -58.95726,0 -106.42188,47.46462 -106.42188,106.42188 0,58.95724 47.46462,106.41992 106.42188,106.41992 h 285.3125 76.81836 183.55273 c 58.95727,0 106.42188,47.464611 106.42188,106.421872 0,58.957262 -47.46461,106.419922 -106.42188,106.419922 H 203.81055 138.04297 -27.269531 c -58.957261,0 -106.421879,47.464616 -106.421879,106.421876 0,58.95726 47.464618,106.41992 106.421879,106.41992 h 231.265621 82.51758 c 58.95727,0 106.41992,47.46461 106.41992,106.42188 0,58.95726 -47.46265,106.42187 -106.41992,106.42187 H 215.58008 -9.2441406 c -58.9572584,0 -106.4199194,47.46266 -106.4199194,106.41992 0,58.95727 47.462661,106.42188 106.4199194,106.42188 H 254.26758 c 35.3329,-3.75423 42.61719,-8.82422 42.61719,-8.82422 175.29413,-27.94146 877.30273,-440.15137 877.30273,-527.23047 0,-90.147899 -752.37592,-528.75811 -893.83398,-528.73242 z"
             transform="scale(0.26458333)"
             sodipodi:nodetypes="scsssccsssccssscssscsssccss" />
          <rect
             style="fill:#000000;stroke:none;stroke-width:0"
             id="rect1043"
             width="58.466499"
             height="56.314472"
             x="-100.0953"
             y="19.543648"
             ry="28.157236" />
          <rect
             style="fill:#000000;fill-opacity:1;stroke:none;stroke-width:0"
             id="rect1045"
             width="115.38212"
             height="56.314472"
             x="-194.66367"
             y="-93.237717"
             ry="28.157236" />
          <rect
             style="fill:#000000;fill-opacity:1;stroke:none;stroke-width:0"
             id="rect1047"
             width="181.35358"
             height="56.314472"
             x="-224.03363"
             y="132.17259"
             ry="28.157236" />
          <rect
             style="fill:#000000;fill-opacity:1;stroke:none;stroke-width:0"
             id="rect1049"
             width="58.466499"
             height="56.314472"
             x="-100.0953"
             y="19.543648"
             ry="28.157236" />
          <rect
             style="fill:#000000;fill-opacity:1;stroke:none;stroke-width:0"
             id="rect1051"
             width="93.759918"
             height="56.314472"
             x="-209.47212"
             y="19.543652"
             ry="28.157236" />
        </g>
        <g
           id="g116"
           transform="matrix(1,0,-0.16895158,1,8.0462752,0)"
           style="display:inline;fill:#00e34e;fill-opacity:1"
           sodipodi:insensitive="true">
          <path
             id="path74"
             style="fill:#00e34e;fill-opacity:1;stroke:none;stroke-width:0"
             inkscape:transform-center-x="-32.006325"
             d="m 280.35352,-352.39453 c -2.93532,5.3e-4 -5.60492,0.19087 -8.00196,0.57617 h -419.62109 c -58.95726,0 -106.42188,47.46462 -106.42188,106.42188 0,58.95724 47.46462,106.41992 106.42188,106.41992 h 285.3125 76.81836 183.55273 c 58.95727,0 106.42188,47.464611 106.42188,106.421872 0,58.957262 -47.46461,106.419922 -106.42188,106.419922 H 203.81055 138.04297 -27.269531 c -58.957261,0 -106.421879,47.464616 -106.421879,106.421876 0,58.95726 47.464618,106.41992 106.421879,106.41992 h 231.265621 82.51758 c 58.95727,0 106.41992,47.46461 106.41992,106.42188 0,58.95726 -47.46265,106.42187 -106.41992,106.42187 H 215.58008 -9.2441406 c -58.9572584,0 -106.4199194,47.46266 -106.4199194,106.41992 0,58.95727 47.462661,106.42188 106.4199194,106.42188 H 254.26758 c 35.3329,-3.75423 42.61719,-8.82422 42.61719,-8.82422 175.29413,-27.94146 877.30273,-440.15137 877.30273,-527.23047 0,-90.147899 -752.37592,-528.75811 -893.83398,-528.73242 z"
             transform="scale(0.26458333)"
             sodipodi:nodetypes="scsssccsssccssscssscsssccss" />
          <rect
             style="fill:#00e34e;fill-opacity:1;stroke:none;stroke-width:0"
             id="rect86"
             width="58.466499"
             height="56.314472"
             x="-100.0953"
             y="19.543648"
             ry="28.157236" />
          <rect
             style="fill:#00e34e;fill-opacity:1;stroke:none;stroke-width:0"
             id="rect88"
             width="115.38212"
             height="56.314472"
             x="-194.66367"
             y="-93.237717"
             ry="28.157236" />
          <rect
             style="fill:#00e34e;fill-opacity:1;stroke:none;stroke-width:0"
             id="rect90"
             width="181.35358"
             height="56.314472"
             x="-224.03363"
             y="132.17259"
             ry="28.157236" />
          <rect
             style="fill:#00e34e;fill-opacity:1;stroke:none;stroke-width:0"
             id="rect102"
             width="58.466499"
             height="56.314472"
             x="-100.0953"
             y="19.543648"
             ry="28.157236" />
          <rect
             style="fill:#00e34e;fill-opacity:1;stroke:none;stroke-width:0"
             id="rect108"
             width="93.759918"
             height="56.314472"
             x="-209.47212"
             y="19.543652"
             ry="28.157236" />
        </g>
      </g>
      <g
         id="g1609"
         inkscape:export-xdpi="96.599998"
         inkscape:export-ydpi="96.599998">
        <text
           xml:space="preserve"
           id="text142"
           style="font-size:10.5833px;line-height:1.25;font-family:Roboto;-inkscape-font-specification:Roboto;white-space:pre;shape-inside:url(#rect144);display:inline;opacity:0.265343;fill:#000000;stroke:none;filter:url(#filter1037)"
           transform="matrix(28.692385,0,-5.3201766,28.692385,9603.3088,6253.9835)"><tspan
             x="-384.96484"
             y="-212.56578"><tspan
               style="font-style:normal;font-variant:normal;font-weight:bold;font-stretch:normal;font-family:'Bebas Neue';-inkscape-font-specification:'Bebas Neue Bold';fill:#000000;stroke:none">JUST</tspan></tspan></text>
        <text
           xml:space="preserve"
           id="text118"
           style="font-size:10.5833px;line-height:1.25;font-family:Roboto;-inkscape-font-specification:Roboto;white-space:pre;shape-inside:url(#rect120);fill:#ff5555;stroke:none"
           transform="matrix(28.692385,0,-5.3201766,28.692385,9598.0168,6252.9251)"><tspan
             x="-384.96484"
             y="-212.56578"><tspan
               style="font-style:normal;font-variant:normal;font-weight:bold;font-stretch:normal;font-family:'Bebas Neue';-inkscape-font-specification:'Bebas Neue Bold';fill:#ff5555;stroke:none">JUST</tspan></tspan></text>
      </g>
    </g>
  </g>
</svg>
