<?xml version="1.0" encoding="UTF-8" standalone="no"?>
<svg
   width="137.82425mm"
   height="57.771027mm"
   viewBox="0 0 137.82425 57.771027"
   version="1.1"
   id="svg6"
   inkscape:version="1.2-dev (bb6b7d54ad, 2021-10-09)"
   sodipodi:docname="logo.svg"
   xmlns:inkscape="http://www.inkscape.org/namespaces/inkscape"
   xmlns:sodipodi="http://sodipodi.sourceforge.net/DTD/sodipodi-0.dtd"
   xmlns="http://www.w3.org/2000/svg"
   xmlns:svg="http://www.w3.org/2000/svg">
  <defs
     id="defs2">
    <rect
       x="-384.96506"
       y="-221.82555"
       width="217.22305"
       height="51.156265"
       id="rect120" />
    <rect
       x="-384.96506"
       y="-221.82555"
       width="217.22305"
       height="51.156265"
       id="rect128" />
    <rect
       x="-384.96506"
       y="-221.82555"
       width="217.22305"
       height="51.156265"
       id="rect144" />
    <filter
       inkscape:collect="always"
       style="color-interpolation-filters:sRGB"
       id="filter1037"
       x="-0.0095115339"
       width="1.0190231"
       y="-0.018164368"
       height="1.0363287">
      <feGaussianBlur
         inkscape:collect="always"
         stdDeviation="0.057671641"
         id="feGaussianBlur1039" />
    </filter>
    <rect
       x="-384.96506"
       y="-221.82555"
       width="217.22305"
       height="51.156265"
       id="rect1263" />
    <filter
       inkscape:collect="always"
       style="color-interpolation-filters:sRGB"
       id="filter1381"
       x="-0.042440762"
       width="1.0848815"
       y="-0.03049672"
       height="1.0609934">
      <feGaussianBlur
         inkscape:collect="always"
         stdDeviation="0.094137148"
         id="feGaussianBlur1383" />
    </filter>
    <filter
       inkscape:collect="always"
       style="color-interpolation-filters:sRGB"
       id="filter1601"
       x="-0.034672182"
       width="1.0693444"
       y="-0.046495377"
       height="1.0929908">
      <feGaussianBlur
         inkscape:collect="always"
         stdDeviation="5.4578776"
         id="feGaussianBlur1603" />
    </filter>
    <rect
       x="-384.96506"
       y="-221.82555"
       width="217.22305"
       height="51.156265"
       id="rect1683" />
    <rect
       x="-384.96506"
       y="-221.82555"
       width="217.22305"
       height="51.156265"
       id="rect1685" />
    <rect
       x="-384.96506"
       y="-221.82555"
       width="217.22305"
       height="51.156265"
       id="rect1687" />
    <rect
       x="-384.96506"
       y="-221.82555"
       width="217.22305"
       height="51.156265"
       id="rect1689" />
    <rect
       x="-384.96506"
       y="-221.82555"
       width="217.22305"
       height="51.156265"
       id="rect1687-5" />
    <rect
       x="-384.96506"
       y="-221.82555"
       width="217.22305"
       height="51.156265"
       id="rect1689-8" />
    <rect
       x="-384.96506"
       y="-221.82555"
       width="217.22305"
       height="51.156265"
       id="rect1683-8" />
    <rect
       x="-384.96506"
       y="-221.82555"
       width="217.22305"
       height="51.156265"
       id="rect1685-4" />
  </defs>
  <sodipodi:namedview
     id="base"
     pagecolor="#212121"
     bordercolor="#666666"
     borderopacity="1.0"
     inkscape:pageopacity="0"
     inkscape:pageshadow="2"
     inkscape:zoom="2.56"
     inkscape:cx="224.60938"
     inkscape:cy="90.234375"
     inkscape:document-units="mm"
     inkscape:current-layer="layer1"
     showgrid="false"
     showborder="true"
     inkscape:window-width="1920"
     inkscape:window-height="1011"
     inkscape:window-x="0"
     inkscape:window-y="0"
     inkscape:window-maximized="1"
     inkscape:snap-grids="false"
     inkscape:snap-page="true"
     fit-margin-top="0"
     fit-margin-left="0"
     fit-margin-right="0"
     fit-margin-bottom="0"
     inkscape:pagecheckerboard="0"
     inkscape:blackoutopacity="0.0" />
  <g
     inkscape:label="Layer 1"
     inkscape:groupmode="layer"
     id="layer1"
     style="display:inline"
     transform="translate(-34.974837,-111.97695)">
    <g
       id="g986"
       style="display:inline"
       transform="matrix(0.18761534,0,0,0.18761534,93.514923,130.93453)">
      <g
         id="g1615"
         style="display:inline"
         inkscape:export-xdpi="96.599998"
         inkscape:export-ydpi="96.599998">
        <g
           aria-label="iT"
           transform="matrix(28.692385,0,-5.3201766,28.692385,10126.388,6259.1024)"
           id="text1261"
           style="font-size:10.5833px;line-height:1.25;font-family:Roboto;-inkscape-font-specification:Roboto;white-space:pre;shape-inside:url(#rect1263);opacity:0.423862;filter:url(#filter1381)">
          <path
             d="m -384.53093,-219.87074 h 1.16416 v 7.40831 h -1.16416 z"
             style="font-weight:bold;font-family:'Bebas Neue';-inkscape-font-specification:'Bebas Neue Bold'"
             id="path62" />
          <path
             d="m -381.58878,-218.81241 h -1.21708 v -1.05833 h 3.59833 v 1.05833 h -1.21708 v 6.34998 h -1.16417 z"
             style="font-weight:bold;font-family:'Bebas Neue';-inkscape-font-specification:'Bebas Neue Bold'"
             id="path64" />
        </g>
        <g
           aria-label="iT"
           transform="matrix(28.692385,0,-5.3201766,28.692385,10122.685,6254.8688)"
           id="text126"
           style="font-size:10.5833px;line-height:1.25;font-family:Roboto;-inkscape-font-specification:Roboto;white-space:pre;shape-inside:url(#rect128);fill:#ff6600">
          <path
             d="m -384.53093,-219.87074 h 1.16416 v 7.40831 h -1.16416 z"
             style="font-weight:bold;font-family:'Bebas Neue';-inkscape-font-specification:'Bebas Neue Bold'"
             id="path67" />
          <path
             d="m -381.58878,-218.81241 h -1.21708 v -1.05833 h 3.59833 v 1.05833 h -1.21708 v 6.34998 h -1.16417 z"
             style="font-weight:bold;font-family:'Bebas Neue';-inkscape-font-specification:'Bebas Neue Bold'"
             id="path69" />
        </g>
      </g>
      <g
         id="g1631"
         inkscape:export-xdpi="96.599998"
         inkscape:export-ydpi="96.599998">
        <g
           id="g1053"
           transform="matrix(1,0,-0.16895158,1,14.925445,5.2916669)"
           style="display:inline;opacity:0.278218;fill:#000000;filter:url(#filter1601)"
           inkscape:label="g1053">
          <path
             id="path1041"
             style="fill:#000000;stroke:none;stroke-width:0"
             inkscape:transform-center-x="-32.006325"
             d="m 280.35352,-352.39453 c -2.93532,5.3e-4 -5.60492,0.19087 -8.00196,0.57617 h -419.62109 c -58.95726,0 -106.42188,47.46462 -106.42188,106.42188 0,58.95724 47.46462,106.41992 106.42188,106.41992 h 285.3125 76.81836 183.55273 c 58.95727,0 106.42188,47.464611 106.42188,106.421872 0,58.957262 -47.46461,106.419922 -106.42188,106.419922 H 203.81055 138.04297 -27.269531 c -58.957261,0 -106.421879,47.464616 -106.421879,106.421876 0,58.95726 47.464618,106.41992 106.421879,106.41992 h 231.265621 82.51758 c 58.95727,0 106.41992,47.46461 106.41992,106.42188 0,58.95726 -47.46265,106.42187 -106.41992,106.42187 H 215.58008 -9.2441406 c -58.9572584,0 -106.4199194,47.46266 -106.4199194,106.41992 0,58.95727 47.462661,106.42188 106.4199194,106.42188 H 254.26758 c 35.3329,-3.75423 42.61719,-8.82422 42.61719,-8.82422 175.29413,-27.94146 877.30273,-440.15137 877.30273,-527.23047 0,-90.147899 -752.37592,-528.75811 -893.83398,-528.73242 z"
             transform="scale(0.26458333)"
             sodipodi:nodetypes="scsssccsssccssscssscsssccss" />
          <rect
             style="fill:#000000;stroke:none;stroke-width:0"
             id="rect1043"
             width="58.466499"
             height="56.314472"
             x="-100.0953"
             y="19.543648"
             ry="28.157236" />
          <rect
             style="fill:#000000;fill-opacity:1;stroke:none;stroke-width:0"
             id="rect1045"
             width="115.38212"
             height="56.314472"
             x="-194.66367"
             y="-93.237717"
             ry="28.157236" />
          <rect
             style="fill:#000000;fill-opacity:1;stroke:none;stroke-width:0"
             id="rect1047"
             width="181.35358"
             height="56.314472"
             x="-224.03363"
             y="132.17259"
             ry="28.157236" />
          <rect
             style="fill:#000000;fill-opacity:1;stroke:none;stroke-width:0"
             id="rect1049"
             width="58.466499"
             height="56.314472"
             x="-100.0953"
             y="19.543648"
             ry="28.157236" />
          <rect
             style="fill:#000000;fill-opacity:1;stroke:none;stroke-width:0"
             id="rect1051"
             width="93.759918"
             height="56.314472"
             x="-209.47212"
             y="19.543652"
             ry="28.157236" />
        </g>
        <g
           id="g116"
           transform="matrix(1,0,-0.16895158,1,8.0462752,0)"
           style="display:inline;fill:#00e34e;fill-opacity:1"
           sodipodi:insensitive="true">
          <path
             id="path74"
             style="fill:#00e34e;fill-opacity:1;stroke:none;stroke-width:0"
             inkscape:transform-center-x="-32.006325"
             d="m 280.35352,-352.39453 c -2.93532,5.3e-4 -5.60492,0.19087 -8.00196,0.57617 h -419.62109 c -58.95726,0 -106.42188,47.46462 -106.42188,106.42188 0,58.95724 47.46462,106.41992 106.42188,106.41992 h 285.3125 76.81836 183.55273 c 58.95727,0 106.42188,47.464611 106.42188,106.421872 0,58.957262 -47.46461,106.419922 -106.42188,106.419922 H 203.81055 138.04297 -27.269531 c -58.957261,0 -106.421879,47.464616 -106.421879,106.421876 0,58.95726 47.464618,106.41992 106.421879,106.41992 h 231.265621 82.51758 c 58.95727,0 106.41992,47.46461 106.41992,106.42188 0,58.95726 -47.46265,106.42187 -106.41992,106.42187 H 215.58008 -9.2441406 c -58.9572584,0 -106.4199194,47.46266 -106.4199194,106.41992 0,58.95727 47.462661,106.42188 106.4199194,106.42188 H 254.26758 c 35.3329,-3.75423 42.61719,-8.82422 42.61719,-8.82422 175.29413,-27.94146 877.30273,-440.15137 877.30273,-527.23047 0,-90.147899 -752.37592,-528.75811 -893.83398,-528.73242 z"
             transform="scale(0.26458333)"
             sodipodi:nodetypes="scsssccsssccssscssscsssccss" />
          <rect
             style="fill:#00e34e;fill-opacity:1;stroke:none;stroke-width:0"
             id="rect86"
             width="58.466499"
             height="56.314472"
             x="-100.0953"
             y="19.543648"
             ry="28.157236" />
          <rect
             style="fill:#00e34e;fill-opacity:1;stroke:none;stroke-width:0"
             id="rect88"
             width="115.38212"
             height="56.314472"
             x="-194.66367"
             y="-93.237717"
             ry="28.157236" />
          <rect
             style="fill:#00e34e;fill-opacity:1;stroke:none;stroke-width:0"
             id="rect90"
             width="181.35358"
             height="56.314472"
             x="-224.03363"
             y="132.17259"
             ry="28.157236" />
          <rect
             style="fill:#00e34e;fill-opacity:1;stroke:none;stroke-width:0"
             id="rect102"
             width="58.466499"
             height="56.314472"
             x="-100.0953"
             y="19.543648"
             ry="28.157236" />
          <rect
             style="fill:#00e34e;fill-opacity:1;stroke:none;stroke-width:0"
             id="rect108"
             width="93.759918"
             height="56.314472"
             x="-209.47212"
             y="19.543652"
             ry="28.157236" />
        </g>
      </g>
      <g
         id="g1609"
         inkscape:export-xdpi="96.599998"
         inkscape:export-ydpi="96.599998">
        <g
           aria-label="JUST"
           transform="matrix(28.692385,0,-5.3201766,28.692385,9603.3088,6253.9835)"
           id="text142"
           style="font-size:10.5833px;line-height:1.25;font-family:Roboto;-inkscape-font-specification:Roboto;white-space:pre;shape-inside:url(#rect144);display:inline;opacity:0.265343;filter:url(#filter1037)">
          <path
             d="m -384.25576,-212.4201 q -0.3175,0 -0.53975,-0.0423 v -1.05833 q 0.16933,0.0423 0.381,0.0423 0.34925,0 0.51858,-0.16933 0.16933,-0.17992 0.16933,-0.53975 v -5.68323 h 1.16417 v 5.65148 q 0,0.91016 -0.42334,1.35466 -0.41275,0.4445 -1.26999,0.4445 z"
             style="font-weight:bold;font-family:'Bebas Neue';-inkscape-font-specification:'Bebas Neue Bold'"
             id="path9441" />
          <path
             d="m -380.03303,-212.3566 q -0.84667,0 -1.29117,-0.47625 -0.44449,-0.48683 -0.44449,-1.38641 v -5.65148 h 1.16416 v 5.73615 q 0,0.381 0.14817,0.55033 0.15875,0.16933 0.44449,0.16933 0.28575,0 0.43392,-0.16933 0.15875,-0.16933 0.15875,-0.55033 v -5.73615 h 1.12183 v 5.65148 q 0,0.89958 -0.4445,1.38641 -0.4445,0.47625 -1.29116,0.47625 z"
             style="font-weight:bold;font-family:'Bebas Neue';-inkscape-font-specification:'Bebas Neue Bold'"
             id="path9443" />
          <path
             d="m -375.95848,-212.3566 q -0.84666,0 -1.28058,-0.47625 -0.43391,-0.48683 -0.43391,-1.38641 v -0.42333 h 1.10066 v 0.508 q 0,0.71966 0.60325,0.71966 0.29633,0 0.4445,-0.16933 0.15875,-0.17992 0.15875,-0.5715 0,-0.46567 -0.21167,-0.81491 -0.21166,-0.35984 -0.78316,-0.85725 -0.71967,-0.635 -1.00542,-1.143 -0.28575,-0.51858 -0.28575,-1.16416 0,-0.87841 0.4445,-1.35466 0.4445,-0.48683 1.29117,-0.48683 0.83608,0 1.25941,0.48683 0.43391,0.47625 0.43391,1.37583 v 0.30691 h -1.10066 v -0.381 q 0,-0.381 -0.14817,-0.55033 -0.14816,-0.17991 -0.43391,-0.17991 -0.58208,0 -0.58208,0.70908 0,0.40216 0.21166,0.75141 0.22225,0.34925 0.79375,0.84666 0.73025,0.635 1.00541,1.15358 0.27517,0.51859 0.27517,1.21708 0,0.91017 -0.45508,1.397 -0.4445,0.48683 -1.30175,0.48683 z"
             style="font-weight:bold;font-family:'Bebas Neue';-inkscape-font-specification:'Bebas Neue Bold'"
             id="path9445" />
          <path
             d="m -372.62474,-218.81241 h -1.21708 v -1.05833 h 3.59832 v 1.05833 h -1.21708 v 6.34998 h -1.16416 z"
             style="font-weight:bold;font-family:'Bebas Neue';-inkscape-font-specification:'Bebas Neue Bold'"
             id="path9447" />
        </g>
        <g
           aria-label="JUST"
           transform="matrix(28.692385,0,-5.3201766,28.692385,9598.0168,6252.9251)"
           id="text118"
           style="font-size:10.5833px;line-height:1.25;font-family:Roboto;-inkscape-font-specification:Roboto;white-space:pre;shape-inside:url(#rect120);fill:#ff5555">
          <path
             d="m -384.25576,-212.4201 q -0.3175,0 -0.53975,-0.0423 v -1.05833 q 0.16933,0.0423 0.381,0.0423 0.34925,0 0.51858,-0.16933 0.16933,-0.17992 0.16933,-0.53975 v -5.68323 h 1.16417 v 5.65148 q 0,0.91016 -0.42334,1.35466 -0.41275,0.4445 -1.26999,0.4445 z"
             style="font-weight:bold;font-family:'Bebas Neue';-inkscape-font-specification:'Bebas Neue Bold'"
             id="path122" />
          <path
             d="m -380.03303,-212.3566 q -0.84667,0 -1.29117,-0.47625 -0.44449,-0.48683 -0.44449,-1.38641 v -5.65148 h 1.16416 v 5.73615 q 0,0.381 0.14817,0.55033 0.15875,0.16933 0.44449,0.16933 0.28575,0 0.43392,-0.16933 0.15875,-0.16933 0.15875,-0.55033 v -5.73615 h 1.12183 v 5.65148 q 0,0.89958 -0.4445,1.38641 -0.4445,0.47625 -1.29116,0.47625 z"
             style="font-weight:bold;font-family:'Bebas Neue';-inkscape-font-specification:'Bebas Neue Bold'"
             id="path124" />
          <path
             d="m -375.95848,-212.3566 q -0.84666,0 -1.28058,-0.47625 -0.43391,-0.48683 -0.43391,-1.38641 v -0.42333 h 1.10066 v 0.508 q 0,0.71966 0.60325,0.71966 0.29633,0 0.4445,-0.16933 0.15875,-0.17992 0.15875,-0.5715 0,-0.46567 -0.21167,-0.81491 -0.21166,-0.35984 -0.78316,-0.85725 -0.71967,-0.635 -1.00542,-1.143 -0.28575,-0.51858 -0.28575,-1.16416 0,-0.87841 0.4445,-1.35466 0.4445,-0.48683 1.29117,-0.48683 0.83608,0 1.25941,0.48683 0.43391,0.47625 0.43391,1.37583 v 0.30691 h -1.10066 v -0.381 q 0,-0.381 -0.14817,-0.55033 -0.14816,-0.17991 -0.43391,-0.17991 -0.58208,0 -0.58208,0.70908 0,0.40216 0.21166,0.75141 0.22225,0.34925 0.79375,0.84666 0.73025,0.635 1.00541,1.15358 0.27517,0.51859 0.27517,1.21708 0,0.91017 -0.45508,1.397 -0.4445,0.48683 -1.30175,0.48683 z"
             style="font-weight:bold;font-family:'Bebas Neue';-inkscape-font-specification:'Bebas Neue Bold'"
             id="path126" />
          <path
             d="m -372.62474,-218.81241 h -1.21708 v -1.05833 h 3.59832 v 1.05833 h -1.21708 v 6.34998 h -1.16416 z"
             style="font-weight:bold;font-family:'Bebas Neue';-inkscape-font-specification:'Bebas Neue Bold'"
             id="path128" />
        </g>
      </g>
    </g>
  </g>
</svg>
